<?xml version="1.0" standalone="no"?>
<!DOCTYPE svg PUBLIC "-//W3C//DTD SVG 20010904//EN"
 "http://www.w3.org/TR/2001/REC-SVG-20010904/DTD/svg10.dtd">
<svg version="1.0" xmlns="http://www.w3.org/2000/svg"
 width="512.000000pt" height="512.000000pt" viewBox="0 0 512.000000 512.000000"
 preserveAspectRatio="xMidYMid meet">
<metadata>
Created by potrace 1.14, written by Peter Selinger 2001-2017
</metadata>
<g transform="translate(0.000000,512.000000) scale(0.100000,-0.100000)"
fill="#000000" stroke="none">
<path d="M1519 4931 c-4 -31 -1 -1910 3 -1917 9 -14 2067 -12 2076 3 5 8 8
1349 3 1456 -1 16 -26 17 -371 17 l-370 0 -1 -32 c0 -18 -1 -285 -1 -593 l-1
-560 -73 -3 -74 -2 0 595 0 595 -373 0 -372 0 0 -517 0 -518 148 -3 147 -3 1
28 c0 16 1 183 2 373 l2 345 60 0 c33 0 66 -1 73 -3 9 -3 12 -101 12 -447 l0
-442 -295 0 c-209 0 -295 3 -296 11 -1 6 -2 373 -3 816 l-1 805 -147 1 c-82 0
-148 -2 -149 -5z m1782 -751 c6 -71 3 -849 -2 -861 -6 -11 -25 -15 -76 -16
l-68 -1 1 441 c1 243 2 444 3 447 0 3 32 5 71 5 55 0 70 -3 71 -15z"/>
<path d="M629 4478 c-1 -16 -1 -259 0 -273 1 -15 280 -13 289 2 4 6 6 71 6
145 l-1 133 -147 3 c-113 2 -146 0 -147 -10z"/>
<path d="M1070 3897 l0 -594 -72 1 -73 1 -2 350 c-1 193 -2 359 -2 371 -1 21
-5 21 -143 19 -79 -1 -145 -3 -148 -3 -8 -3 -6 -1026 2 -1032 3 -3 170 -5 370
-5 l363 0 3 743 2 742 -150 0 -150 0 0 -593z"/>
<path d="M3750 3525 l0 -965 150 0 150 0 0 223 0 223 220 0 220 -1 1 25 c0 14
1 347 1 740 l1 715 -146 3 c-114 2 -147 0 -148 -10 0 -7 -1 -274 -1 -594 l-1
-580 -74 -1 -73 -1 0 594 0 594 -150 0 -150 0 0 -965z"/>
<path d="M629 2851 c-1 -9 -1 -252 0 -273 1 -17 47 -18 816 -18 645 0 815 3
816 13 1 14 1 269 0 278 -1 8 -1631 8 -1632 0z"/>
<path d="M2410 2709 l0 -149 150 0 150 0 0 149 0 149 -150 0 -150 0 0 -149z"/>
<path d="M2859 2846 c-1 -16 -1 -258 0 -273 1 -10 83 -13 374 -13 l372 0 -2
137 c-1 76 -2 143 -2 149 -1 16 -741 16 -742 0z"/>
<path d="M4199 2849 c0 -5 -1 -65 -1 -134 0 -69 1 -132 1 -140 1 -13 22 -15
148 -13 l146 3 0 138 c-1 75 -2 141 -2 145 -1 12 -291 12 -292 1z"/>
<path d="M629 2403 c-1 -10 -1 -242 0 -269 1 -20 4 -20 371 -20 l370 0 0 148
0 148 -370 0 c-203 0 -370 -3 -371 -7z"/>
<path d="M1519 2403 c-1 -10 -1 -264 0 -279 1 -7 313 -10 1041 -10 936 0 1040
1 1041 15 1 9 1 75 1 146 l1 130 -1042 3 c-572 1 -1041 -1 -1042 -5z"/>
<path d="M3748 1668 l-3 -743 -285 0 c-157 0 -290 1 -295 2 -7 2 -10 132 -10
371 l0 367 75 0 74 0 0 -307 0 -308 148 0 c134 0 148 2 149 18 1 23 1 851 0
878 -1 20 -4 20 -363 19 -200 -1 -367 -3 -373 -3 -7 -1 -10 -181 -9 -517 1
-363 -2 -515 -10 -518 -9 -3 -85 -2 -123 2 -10 1 -13 112 -13 519 l0 518 -150
0 -150 0 0 -891 0 -892 150 0 150 0 0 224 0 223 670 0 670 0 0 890 0 890 -150
0 -150 0 -2 -742z"/>
<path d="M4199 2408 c-1 -4 -1 -1727 0 -1755 1 -23 3 -23 146 -23 109 0 145 3
146 13 1 16 1 1750 0 1760 -1 6 -290 11 -292 5z"/>
<path d="M629 1960 c-1 -7 -1 -1279 0 -1307 l1 -23 815 0 c645 0 815 3 816 13
1 17 1 1243 0 1288 l-1 35 -147 0 -148 -1 0 -518 c0 -284 -2 -517 -5 -518 -3
0 -35 -2 -72 -3 -53 -2 -67 1 -70 13 -2 9 -3 237 -2 506 1 270 0 497 -2 505
-3 13 -29 15 -151 16 l-148 0 1 -510 c1 -281 0 -516 -3 -521 -2 -6 -34 -10
-71 -9 l-67 0 -3 520 -2 520 -370 0 c-204 0 -370 -3 -371 -6z m439 -662 l-3
-372 -71 -1 -71 0 0 372 0 373 74 0 73 0 -2 -372z"/>
<path d="M1070 332 l0 -149 373 0 373 0 -1 146 0 146 -372 3 -373 2 0 -148z"/>
<path d="M1969 478 c-1 -2 -2 -67 -3 -146 -1 -136 0 -143 19 -147 31 -6 275
-2 276 4 1 8 1 263 0 279 -1 9 -37 12 -146 12 -80 0 -146 -1 -146 -2z"/>
</g>
</svg>
