<svg version="1.1" id="Layer_1" xmlns="http://www.w3.org/2000/svg" x="0" y="0" viewBox="0 0 309.87 88.41" style="enable-background:new 0 0 309.87 88.41" xml:space="preserve"><style>.st0{fill:#044f28}</style><path class="st0" d="m15.12 62.39-1.26.19L3.59 86.75H.88v1.57h7.87v-1.57h-3.1l3.17-7.77h8.76l2.65 7.77h-2.65v1.57h8.88v-1.57h-2.62l-8.72-24.36zM9.41 77.45 13.55 67l3.55 10.45H9.41zM40.59 69.03c-2.65 0-4.89 2.35-6.22 4.47v-4.35h-.71l-4.85 1.49v.94h2.67v15.18h-2.67v1.57h7.98v-1.57h-2.42v-9.7c.08-2.02 1.57-4.96 3.88-4.96.74 0 1.26.44 1.53 1.26H42c.65-.71.97-1.49.97-2.35 0-1.31-.78-1.98-2.38-1.98zM59.92 86.41c-.82 0-1.26-.74-1.26-2.23V74.4c0-3.25-1.57-4.96-4.85-4.96-2.46 0-5.48 1.01-7.24 2.77v3.13h1.26l1.36-3.13c1.45-.82 2.71-1.2 3.84-1.2 1.91 0 2.86 1.09 2.86 3.32v1.53c-7.16 1.87-10.73 4.56-10.73 8.1 0 2.81 1.93 4.6 4.7 4.6 1.97 0 3.95-1.28 6.03-3.91v.59c0 2.23.69 3.32 2.06 3.32 1.49 0 2.98-.67 4.51-2.02l-.48-.78c-.63.36-1.34.65-2.06.65zm-4.03-3.06c-1.53 2.02-3.06 3.06-4.62 3.06-1.72 0-2.86-1.11-2.86-2.83 0-3.88 4.43-5.52 7.49-6.61v6.38zM76.31 69.11c-2.08 0-4.03.82-5.96 2.46v-12.2h-.31l-5.25 1.49v.94h2.67v25.03c2.1 1.26 4.11 1.87 5.98 1.87C79.46 88.7 84 84.06 84 78.06c0-4.56-2.69-8.95-7.69-8.95zm-1.38 18.31c-1.91 0-3.44-.71-4.58-2.08V72.79c1.18-1.05 2.62-1.57 4.35-1.57 4.37 0 6.2 4.37 6.2 8.13.01 3.77-1.55 8.07-5.97 8.07zM92.41 61.75c0-1.2-.9-2.1-2.12-2.1a2.1 2.1 0 0 0-2.1 2.1c0 1.18.94 2.12 2.1 2.12 1.11 0 2.12-1.01 2.12-2.12zM91.9 68.76h-.71l-4.85 1.49v.94h2.68v15.56h-2.68v1.56h7.98v-1.56H91.9zM96.68 79.88c0 4.93 2.9 8.96 8.1 8.96 2.42 0 4.93-.96 7.49-2.79l-.63-.97c-1.76 1.09-3.47 1.64-5.21 1.64-4.64 0-6.61-3.99-6.61-8.13 0-3.76 1.6-8.06 6-8.06 3.55 0 5.12 1.87 6.02 5.15h1.01v-4.72c-1.39-1.03-3.86-1.72-5.59-1.72-6.04 0-10.58 4.6-10.58 10.64zM141.87 64.7H145v9.54h-14.07V64.7h3.28v-1.61h-9.47v1.61h3.13v22.05h-3.13v1.56h9.47v-1.56h-3.28V75.77H145v10.98h-3.13v1.56h9.47v-1.56h-3.29V64.7h3.29v-1.61h-9.47zM168.46 86.41c-.82 0-1.26-.74-1.26-2.23V74.4c0-3.25-1.57-4.96-4.85-4.96-2.46 0-5.48 1.01-7.24 2.77v3.13h1.26l1.36-3.13c1.45-.82 2.71-1.2 3.84-1.2 1.91 0 2.86 1.09 2.86 3.32v1.53c-7.16 1.87-10.73 4.56-10.73 8.1 0 2.81 1.93 4.6 4.7 4.6 1.97 0 3.95-1.28 6.03-3.91v.59c0 2.23.69 3.32 2.06 3.32 1.49 0 2.98-.67 4.51-2.02l-.48-.78c-.63.36-1.34.65-2.06.65zm-4.03-3.06c-1.53 2.02-3.06 3.06-4.62 3.06-1.72 0-2.86-1.11-2.86-2.83 0-3.88 4.43-5.52 7.49-6.61v6.38zM173.34 79.88c0 4.93 2.9 8.96 8.1 8.96 2.42 0 4.93-.96 7.49-2.79l-.63-.97c-1.76 1.09-3.47 1.64-5.21 1.64-4.64 0-6.61-3.99-6.61-8.13 0-3.76 1.61-8.06 6-8.06 3.55 0 5.12 1.87 6.01 5.15h1.01v-4.72c-1.39-1.03-3.86-1.72-5.59-1.72-6.03 0-10.57 4.6-10.57 10.64zM200.38 76.55l6.09-5.44h2.79v-1.64h-7.54v1.64h2.61l-6.93 6.34V59.37h-.7l-4.85 1.49v.93h2.67v24.96h-2.67v1.56h7.98v-1.56h-2.43v-7.39l.86-.82 6.82 8.21h-2.01v1.56h7.55v-1.56h-1.88zM227.73 86.41c-.82 0-1.26-.74-1.26-2.23V74.4c0-3.25-1.57-4.96-4.85-4.96-2.46 0-5.48 1.01-7.24 2.77v3.13h1.26L217 72.2c1.45-.82 2.71-1.2 3.84-1.2 1.91 0 2.86 1.09 2.86 3.32v1.53c-7.16 1.87-10.73 4.56-10.73 8.1 0 2.81 1.93 4.6 4.7 4.6 1.97 0 3.95-1.28 6.03-3.91v.59c0 2.23.69 3.32 2.06 3.32 1.49 0 2.98-.67 4.51-2.02l-.48-.78c-.62.37-1.33.66-2.06.66zm-4.02-3.06c-1.53 2.02-3.06 3.06-4.62 3.06-1.72 0-2.86-1.11-2.86-2.83 0-3.88 4.43-5.52 7.49-6.61v6.38zM241.07 86.23c-2.62 0-3.02-1.95-3.02-4.22V71.23h6.03v-1.76h-6.03v-4.85h-1.01c0 2.81-1.26 4.85-4.39 4.85l-.04 1.76h2.6V82.8c0 3.13 1.32 5.78 4.81 5.78 2.25 0 4.33-1.76 5.9-3.25l-.71-.9c-1.05.94-2.69 1.8-4.14 1.8zM265.23 75.03c0-2.94-.46-5.82-3.95-5.82-2.06 0-4.53 1.05-7.46 3.11V59.37h-.71l-4.85 1.49v.94h2.67v24.96h-2.67v1.57h7.98v-1.57h-2.42V73.69c2.31-1.41 4.18-2.12 5.63-2.12 1.93 0 2.86 1.15 2.86 3.46v11.72h-2.27v1.57h7.98v-1.57h-2.79V75.03zM279.05 69.07c-5.27 0-8.69 5.1-8.69 10.06 0 5.04 3.21 9.62 8.69 9.62 5.29 0 8.73-5.02 8.73-10.02-.01-5.08-3.25-9.66-8.73-9.66zm.4 18.16c-4.39 0-5.92-5.6-5.92-9.17 0-3.15 1.3-7.43 5.14-7.43 4.53 0 5.9 5.44 5.9 9.11-.01 3.13-1.34 7.49-5.12 7.49zM307.08 86.75V75.03c0-2.94-.46-5.82-3.95-5.82-2.06 0-4.53 1.05-7.47 3.11v-3.17h-.71l-4.85 1.49v.94h2.67v15.18h-2.67v1.57h7.98v-1.57h-2.43V73.69c2.31-1.41 4.18-2.12 5.63-2.12 1.93 0 2.86 1.15 2.86 3.46v11.72h-2.27v1.57h7.98v-1.57h-2.77zM17.36 4.73l-4.73-3.01-2.45 3.63 4.73 3zM8.81 4.75l-4.7-3.01-2.45 3.63 4.7 3.01zM29.87 45.29l4.7 3.01 2.45-3.63-4.7-3.01zM29.11 36.97c2.64-.45 4.5-1.27 5.6-2.48 1.07-1.21 1.77-2.31 2.11-3.29.56 1.35 1.69 2.64 3.4 3.88 1.72 1.27 3.38 1.88 5.04 1.88H58.12c1.15-1.21 1.86-3.66 2.11-7.31-.25-3.57-1.55-6.84-3.83-9.79h-.28l-1.88 3.6v.28c1.38 2.17 2.31 3.77 2.76 4.84.45 1.1.79 2.56 1.04 4.42H45.91c-2-.09-3.91-1.13-5.68-3.07-.98-1.77-1.66-2.7-1.97-2.78-.65 0-1.52 1.01-2.62 3.07-.98 1.83-3.18 2.76-6.53 2.78h-.73c-1.71 0-3.23-.48-4.61-1.44-1.8-1.1-3.29-3.4-4.47-6.92-.53-2.28-.98-6.08-1.32-11.39h-.62l-1.29 3.29.17 2.25c-.48.65-1.1 1.21-1.88 1.69-5.51 2.22-8.81 4.02-9.9 5.4-1.52 1.6-2.59 3.99-3.24 7.2 0 1.27 1.27 1.91 3.8 1.91 2.98 0 5.23-.22 6.72-.65 4.08-.9 6.13-2.7 6.13-5.4 1.71 5.16 4.81 7.82 9.35 8l.02.02H29.11zM6.89 31.11c-2 0-3.29-.28-3.88-.81 0-.54 1.01-1.44 3.01-2.7.98-.59 3.32-1.66 6.98-3.15 1.69-.96 2.84-2.31 3.43-4.05 0 1.49.42 4.13 1.27 7.93-2.59 1.86-6.19 2.78-10.81 2.78zM40.85 41.64l-2.45 3.62 4.72 3.02 2.45-3.63zM51.03 45.29l4.7 3.01 2.44-3.63-4.69-3.01zM127.8 28.24c0-2.39-.23-5.15-.68-8.24-.48-3.09-.98-5.88-1.52-8.35l2.53 1.27h.17l1.88-3.97v-.28c-5.77-3.12-8.64-5.99-8.64-8.55l-.21-.12c-1.35 1.41-2.03 2.95-2.03 4.61 0 1.8.96 3.38 2.87 4.7 2 11.62 3.01 18.74 3.01 21.35-.03.98-.14 1.77-.34 2.34h-10.39c-2.84-.2-5.2-1.15-7.06-2.87 1.32-1.8 1.97-3.49 1.97-5.09-.59-3.4-3.12-5.09-7.62-5.09-2.5 0-4.75.34-6.78.98l-1.74 4.05.39.51c1.97 0 3.52.22 4.61.68 2.14.93 3.57 2.28 4.3 4.05-3.18 1.6-7.34 2.53-12.55 2.78H87.5c-2.56 0-4.78-.9-6.67-2.73-1.86-1.77-2.78-3.54-2.78-5.32l-.67-.23-1.35 3.69c0 2.93 1.83 5.37 5.46 7.34-.7 3.12-2.56 5.88-5.57 8.21-2.53 1.83-6.58 2.73-12.13 2.73h-3.71v1.04c4.64 1.35 9.28 2.03 13.93 2.03 2.39-.7 4.53-2.25 6.36-4.7 1.8-2.95 2.84-5.85 3.15-8.64 1.07.25 2.39.42 3.99.53h2.38c6.39-.48 11.28-2 14.71-4.5 1.66 3.01 4.92 4.5 9.85 4.5h11.09c1.5-3.25 2.26-6.15 2.26-8.71zM140.2 36.97c.82-2.7 1.35-5.49 1.6-8.38 0-5.18-.9-14.32-2.7-27.4h-.37l-2.25 5.49c2.05 15.44 3.09 25.54 3.09 30.3h.63zM170.39 43.55c5.23 0 9.79-1.41 13.67-4.25 1.49-2 2.34-4.28 2.56-6.84V28.5c-.17-2.48-.84-5.68-2.03-9.62h-.37l-2.45 4.14c1.35 4.59 2.11 8.83 2.28 12.72-4.25 2.28-8.81 3.4-13.67 3.4-6.72 0-10.1-2.84-10.1-8.5.2-2.14.65-4.36 1.41-6.64l-1.12-.54c-1.74 4.22-2.62 7.76-2.62 10.63 0 6.31 4.14 9.46 12.44 9.46zM174.83 10.89l-4.7-3.01-2.44 3.63 4.69 3.01zM218.38 41.66l-2.45 3.63 4.7 3.01 2.44-3.63zM253.34 30.21c4.98 3.63 9.31 5.46 13.05 5.46 1.44 0 2.42-1.46 2.9-4.42a32 32 0 0 0-.37-4.95c-.96-5.65-3.04-8.47-6.22-8.47-4.11 0-7.76 3.91-11 11.7-1.35 2.31-3.43 3.46-6.27 3.46h-6.95c-2.14-.09-3.8-.59-5.01-1.46s-1.8-1.66-1.8-2.31c.96-.76 2.53-1.27 4.73-1.55h1.35c.42 0 .98-.06 1.72-.17.42 0 .9-1.35 1.43-4.05l-.17-.08h-1.55c-1.43 0-3.23-.22-5.4-.65-7.51-2.11-12.66-3.15-15.39-3.15-3.94 0-6.98 1.49-9.09 4.5-2 3.18-3.18 5.63-3.52 7.31l.08.17c.34 0 .84-.56 1.55-1.72 1.41-3.97 4.33-5.94 8.81-5.94 2.17 0 6.41.84 12.8 2.53v.08c-.84.37-2.05.98-3.6 1.89-4.33 2.93-10.95 4.45-19.83 4.58-3.14-.05-5.22-1.09-6.25-3.17-1.04-2.11-2.11-11.7-3.21-28.78h-.56L193.4 5.6c1.46 14.91 2.42 23.24 2.87 24.98.7 2.17 1.83 3.74 3.38 4.73 1.19.85 2.66 1.37 4.4 1.56l.1.1h5.18c4.7-.45 8.5-1.27 11.34-2.42l9.62-5.06c.14 2.59.9 4.45 2.31 5.6 1.41 1.15 3.38 1.77 5.91 1.88H244.65c1.32-.08 2.5-.45 3.6-1.04 1.52-.71 3.21-2.62 5.09-5.72zm7.65-8.15c2.84 0 4.76 3.04 5.77 9.12-5.32-1.35-9.17-3.21-11.62-5.6 2.03-2.34 3.97-3.52 5.85-3.52zM291.99 36.97h12.52c1.15-1.21 1.86-3.66 2.11-7.31-.25-3.57-1.55-6.84-3.83-9.79h-.28l-1.88 3.6v.28c1.38 2.17 2.31 3.77 2.76 4.84.45 1.1.79 2.56 1.04 4.42H292c-2.56 0-4.78-.9-6.67-2.73-1.86-1.77-2.78-3.54-2.78-5.32l-.68-.23-1.35 3.69c0 2.93 1.83 5.37 5.46 7.34-.7 3.12-2.56 5.88-5.57 8.21-2.53 1.83-6.58 2.73-12.13 2.73h-3.71v1.04c4.64 1.35 9.28 2.03 13.93 2.03 2.39-.7 4.53-2.25 6.36-4.7 1.8-2.95 2.84-5.85 3.15-8.64 1.06.25 2.38.42 3.98.54zM297.42 45.29l4.7 3.01 2.45-3.63-4.7-3.01z"/></svg>