<!--?xml version="1.0" encoding="utf-8"?-->
<!-- Generator: Adobe Illustrator 26.0.3, SVG Export Plug-In . SVG Version: 6.00 Build 0)  -->
<svg version="1.1" id="Layer_1" xmlns="http://www.w3.org/2000/svg" xmlns:xlink="http://www.w3.org/1999/xlink" x="0px" y="0px" viewBox="0 0 190.62 225.22" style="" xml:space="preserve">
<style type="text/css">
	.st0{fill:none;stroke:#044F28;stroke-miterlimit:10;}
</style>
<g>
	<path class="st0 GDuWkjEK_0" d="M15.37,50.99L15.37,94.27L46.28,94.27L46.28,32.44L33.92,32.44L33.92,81.91L27.73,81.91L27.73,50.99Z"></path>
	<path class="st0 GDuWkjEK_1" width="12.37" height="12.37" d="M15.37 32.44 L27.74 32.44 L27.74 44.809999999999995 L15.37 44.809999999999995 Z"></path>
	<path class="st0 GDuWkjEK_2" width="68.01" height="12.37" d="M15.37 100.46 L83.38000000000001 100.46 L83.38000000000001 112.83 L15.37 112.83 Z"></path>
	<path class="st0 GDuWkjEK_3" d="M114.3,94.27h24.73l0-24.73l-0.01,0.01l0-37.1h-30.92l0,49.46h-6.18l0-49.46H71.02l0,43.28h12.37l0-30.92h6.18
		v37.1l-24.73,0l0-68.01l-12.37,0v80.38L114.3,94.27L114.3,94.27z M120.48,63.36V44.81h6.18v37.1h-6.18L120.48,63.36z"></path>
	<path class="st0 GDuWkjEK_4" width="30.92" height="12.37" d="M15.37 119.01 L46.29 119.01 L46.29 131.38 L15.37 131.38 Z"></path>
	<path class="st0 GDuWkjEK_5" d="M176.13,32.44L163.76,32.44L163.76,44.81L163.77,44.8L163.77,81.9L157.58,81.9L157.58,50.99L
		157.58,50.99L157.58,32.44L145.21,32.44L145.21,63.36L145.22,63.35L145.22,112.82L157.58,112.82L157.58,94.27L176.13,94.27L
		176.13,81.9Z"></path>
	<path class="st0 GDuWkjEK_6" d="M77.2,131.37L139.03,131.37L139.03,119L89.57,119L89.56,119.01L52.47,119.01L52.47,131.37L77.2,131.37Z"></path>
	<path class="st0 GDuWkjEK_7" width="12.37" height="12.37" d="M163.77 100.45 L176.14000000000001 100.45 L176.14000000000001 112.82000000000001 L163.77 112.82000000000001 Z"></path>
	<path class="st0 GDuWkjEK_8" width="30.91" height="12.37" d="M108.12 100.45 L139.03 100.45 L139.03 112.82000000000001 L108.12 112.82000000000001 Z"></path>
	<path class="st0 GDuWkjEK_9" d="M89.56,100.46L89.56,112.82L95.75,112.82L95.75,112.82L101.94,112.82L101.94,106.63L101.93,106.64L
		101.93,100.46Z"></path>
	<path class="st0 GDuWkjEK_10" width="12.37" height="74.2" d="M163.77 119 L176.14000000000001 119 L176.14000000000001 193.2 L163.77 193.2 Z"></path>
	<path class="st0 GDuWkjEK_11" d="M145.22,180.83L120.49,180.83L120.48,149.92L126.67,149.92L126.67,175.68L139.03,175.68L139.03,149.92L
		139.03,137.55L108.12,137.55L108.12,180.83L101.94,180.83L101.94,137.55L89.57,137.55L89.57,211.75L101.94,211.75L101.94,193.2L
		157.58,193.2L157.58,119L145.22,119Z"></path>
	<path class="st0 GDuWkjEK_12" width="12.37" height="12.37" d="M71.02 199.38 L83.39 199.38 L83.39 211.75 L71.02 211.75 Z"></path>
	<path class="st0 GDuWkjEK_13" width="30.92" height="12.37" d="M33.92 199.38 L64.84 199.38 L64.84 211.75 L33.92 211.75 Z"></path>
	<path class="st0 GDuWkjEK_14" d="M71.02,137.55l0,43.28l-6.18,0l0-37.1l-0.01,0.01l0-6.18H52.47l0,18.55l0.01-0.01l0,24.73h-6.18l0-18.55
		l-0.01,0.01v-24.73l-30.92,0l0.01,55.64l68.01,0l0-12.37l0-43.28H71.02z M33.92,180.83h-6.18l-0.01,0.01l0-30.91h6.18l0,24.73
		l0.01-0.01L33.92,180.83z"></path>
</g>
<style data-made-with="vivus-instant">.GDuWkjEK_0{stroke-dasharray:248 250;stroke-dashoffset:249;animation:GDuWkjEK_draw 5000ms ease-in-out 0ms forwards;}.GDuWkjEK_1{stroke-dasharray:50 52;stroke-dashoffset:51;animation:GDuWkjEK_draw 5000ms ease-in-out 0ms forwards;}.GDuWkjEK_2{stroke-dasharray:161 163;stroke-dashoffset:162;animation:GDuWkjEK_draw 5000ms ease-in-out 0ms forwards;}.GDuWkjEK_3{stroke-dasharray:718 720;stroke-dashoffset:719;animation:GDuWkjEK_draw 5000ms ease-in-out 0ms forwards;}.GDuWkjEK_4{stroke-dasharray:87 89;stroke-dashoffset:88;animation:GDuWkjEK_draw 5000ms ease-in-out 0ms forwards;}.GDuWkjEK_5{stroke-dasharray:322 324;stroke-dashoffset:323;animation:GDuWkjEK_draw 5000ms ease-in-out 0ms forwards;}.GDuWkjEK_6{stroke-dasharray:198 200;stroke-dashoffset:199;animation:GDuWkjEK_draw 5000ms ease-in-out 0ms forwards;}.GDuWkjEK_7{stroke-dasharray:50 52;stroke-dashoffset:51;animation:GDuWkjEK_draw 5000ms ease-in-out 0ms forwards;}.GDuWkjEK_8{stroke-dasharray:87 89;stroke-dashoffset:88;animation:GDuWkjEK_draw 5000ms ease-in-out 0ms forwards;}.GDuWkjEK_9{stroke-dasharray:50 52;stroke-dashoffset:51;animation:GDuWkjEK_draw 5000ms ease-in-out 0ms forwards;}.GDuWkjEK_10{stroke-dasharray:174 176;stroke-dashoffset:175;animation:GDuWkjEK_draw 5000ms ease-in-out 0ms forwards;}.GDuWkjEK_11{stroke-dasharray:584 586;stroke-dashoffset:585;animation:GDuWkjEK_draw 5000ms ease-in-out 0ms forwards;}.GDuWkjEK_12{stroke-dasharray:50 52;stroke-dashoffset:51;animation:GDuWkjEK_draw 5000ms ease-in-out 0ms forwards;}.GDuWkjEK_13{stroke-dasharray:87 89;stroke-dashoffset:88;animation:GDuWkjEK_draw 5000ms ease-in-out 0ms forwards;}.GDuWkjEK_14{stroke-dasharray:495 497;stroke-dashoffset:496;animation:GDuWkjEK_draw 5000ms ease-in-out 0ms forwards;}@keyframes GDuWkjEK_draw{100%{stroke-dashoffset:0;}}@keyframes GDuWkjEK_fade{0%{stroke-opacity:1;}95.65217391304348%{stroke-opacity:1;}100%{stroke-opacity:0;}}</style></svg>
