<svg version="1.1" id="Layer_1" xmlns="http://www.w3.org/2000/svg" x="0" y="0" viewBox="0 0 308.99 483.93" style="enable-background:new 0 0 308.99 483.93" xml:space="preserve"><style>.st0{fill:#004e28}.st1{fill:#3b9499}</style><path class="st0" d="M236.14 152.99V35.31H177.3v94.14h-11.77V35.31h-58.84v82.38h23.54V58.85H142v70.61H94.93V0H71.39v152.99h164.75zm-35.3-58.84v-35.3h11.77v70.61h-11.77V94.15zM283.22 35.3v94.15h-11.77V35.3h-23.54v152.99h23.54v-35.3h35.3V35.3z"/><path class="st0" d="M283.22 164.75h23.54v23.54h-23.54z"/><path class="st1" d="M106.69 353.04h23.54v23.54h-23.54zM36.09 353.04h58.84v23.54H36.09z"/><path class="st0" d="M142 164.75h23.54v23.54H142zM177.3 164.75h58.84v23.54H177.3z"/><path class="st1" d="M71.39 200.06h164.75v23.54H71.39z"/><path class="st0" d="M.78 164.75h129.45v23.54H.78z"/><path class="st1" d="M283.22 200.06h23.54v141.22h-23.54zM247.91 317.74h-47.07V258.9h11.77v49.03h23.53v-72.57H177.3v82.38h-11.77v-82.38H142v141.22h23.53v-35.3h105.92V200.06h-23.54z"/><path class="st0" d="M59.62 152.99V35.3H36.09v94.15H24.32V70.61H.78v82.38z"/><path class="st1" d="M.78 200.06h58.84v23.54H.78z"/><path class="st0" d="M.78 35.3h23.54v23.54H.78z"/><path class="st1" d="M106.69 317.74H94.93v-82.38H71.39v82.38H59.62v-82.38H.78v105.91h129.45V235.35h-23.54v82.39zm-82.37 0V258.9h11.77v58.84H24.32z"/><g><path class="st0" d="M16.71 474.08H7.94l-3.17 7.77h3.09v1.57H0v-1.57h2.71l10.27-24.17 1.26-.19 8.73 24.36h2.62v1.57h-8.88v-1.57h2.65l-2.65-7.77zm-8.18-1.53h7.7l-3.55-10.45-4.15 10.45zM35.91 483.41h-7.98v-1.57h2.67v-15.18h-2.67v-.94l4.85-1.49h.71v4.35c1.34-2.12 3.57-4.47 6.22-4.47 1.61 0 2.39.67 2.39 1.97 0 .86-.33 1.64-.97 2.35H38.9c-.27-.82-.78-1.26-1.53-1.26-2.31 0-3.8 2.94-3.88 4.96v9.7h2.42v1.58zM55.01 479.73c-2.08 2.64-4.07 3.91-6.03 3.91-2.77 0-4.7-1.79-4.7-4.6 0-3.53 3.57-6.23 10.73-8.1v-1.53c0-2.23-.96-3.32-2.86-3.32-1.13 0-2.39.38-3.84 1.2l-1.36 3.13h-1.26v-3.13c1.76-1.76 4.77-2.77 7.24-2.77 3.28 0 4.85 1.72 4.85 4.96v9.78c0 1.49.44 2.23 1.26 2.23.73 0 1.43-.29 2.06-.67l.48.78c-1.53 1.36-3.02 2.02-4.51 2.02-1.37 0-2.06-1.09-2.06-3.32v-.57zm0-1.28v-6.38c-3.06 1.09-7.49 2.73-7.49 6.61 0 1.72 1.15 2.83 2.86 2.83 1.58-.01 3.1-1.04 4.63-3.06zM66.59 456.89h-2.67v-.94l5.25-1.49h.31v12.2c1.93-1.64 3.88-2.46 5.96-2.46 5 0 7.69 4.39 7.69 8.96 0 6-4.54 10.64-10.56 10.64-1.87 0-3.88-.61-5.98-1.87v-25.04zm2.88 11v12.54c1.15 1.38 2.67 2.08 4.58 2.08 4.41 0 5.98-4.3 5.98-8.06s-1.83-8.13-6.2-8.13c-1.74 0-3.17.52-4.36 1.57zM93.45 483.41h-7.98v-1.57h2.67v-15.56h-2.67v-.94l4.85-1.49h.71v17.99h2.42v1.57zm-6.13-26.56c0-1.16.94-2.1 2.1-2.1 1.22 0 2.12.9 2.12 2.1 0 1.11-1.01 2.12-2.12 2.12-1.17 0-2.1-.93-2.1-2.12zM110.94 470.77c-.9-3.28-2.46-5.15-6.02-5.15-4.39 0-6 4.3-6 8.06 0 4.14 1.97 8.13 6.61 8.13 1.74 0 3.46-.55 5.21-1.64l.63.97c-2.56 1.83-5.06 2.79-7.49 2.79-5.19 0-8.1-4.03-8.1-8.96 0-6.03 4.54-10.64 10.56-10.64 1.74 0 4.2.69 5.59 1.72v4.72h-.99zM130.05 470.87v10.98h3.28v1.57h-9.47v-1.57h3.13V459.8h-3.13v-1.6h9.47v1.6h-3.28v9.55h14.07v-9.55h-3.13v-1.6h9.47v1.6h-3.28v22.05h3.28v1.57h-9.47v-1.57h3.13v-10.98h-14.07zM163.55 479.73c-2.08 2.64-4.07 3.91-6.03 3.91-2.77 0-4.7-1.79-4.7-4.6 0-3.53 3.57-6.22 10.73-8.1v-1.53c0-2.23-.96-3.32-2.86-3.32-1.13 0-2.39.38-3.84 1.2l-1.36 3.13h-1.26v-3.13c1.76-1.76 4.77-2.77 7.24-2.77 3.28 0 4.85 1.72 4.85 4.96v9.78c0 1.49.44 2.23 1.26 2.23.73 0 1.43-.29 2.06-.67l.48.78c-1.53 1.36-3.02 2.02-4.51 2.02-1.38 0-2.06-1.09-2.06-3.32v-.57zm0-1.28v-6.38c-3.06 1.09-7.49 2.73-7.49 6.61 0 1.72 1.15 2.83 2.86 2.83 1.58-.01 3.1-1.04 4.63-3.06zM187.6 470.77c-.9-3.28-2.46-5.15-6.01-5.15-4.39 0-6 4.3-6 8.06 0 4.14 1.97 8.13 6.61 8.13 1.74 0 3.46-.55 5.21-1.64l.63.97c-2.56 1.83-5.06 2.79-7.49 2.79-5.19 0-8.1-4.03-8.1-8.96 0-6.03 4.54-10.64 10.56-10.64 1.74 0 4.2.69 5.59 1.72v4.72h-1zM196.52 474.46v7.39h2.43v1.57h-7.98v-1.57h2.67v-24.96h-2.67v-.94l4.85-1.49h.71v18.08l6.93-6.34h-2.62v-1.64h7.54v1.64h-2.79l-6.09 5.44 8.36 10.2h1.87v1.57h-7.54v-1.57h2l-6.82-8.21-.85.83zM222.83 479.73c-2.08 2.64-4.07 3.91-6.03 3.91-2.77 0-4.7-1.79-4.7-4.6 0-3.53 3.57-6.23 10.73-8.1v-1.53c0-2.23-.96-3.32-2.86-3.32-1.13 0-2.39.38-3.84 1.2l-1.35 3.13h-1.26v-3.13c1.76-1.76 4.77-2.77 7.24-2.77 3.28 0 4.85 1.72 4.85 4.96v9.78c0 1.49.44 2.23 1.26 2.23.73 0 1.43-.29 2.06-.67l.48.78c-1.53 1.36-3.02 2.02-4.51 2.02-1.38 0-2.06-1.09-2.06-3.32v-.57zm0-1.28v-6.38c-3.06 1.09-7.49 2.73-7.49 6.61 0 1.72 1.15 2.83 2.86 2.83 1.57-.01 3.1-1.04 4.63-3.06zM234.33 477.9v-11.57h-2.6l.04-1.76c3.13 0 4.39-2.04 4.39-4.85h1.01v4.85h6.03v1.76h-6.03v10.79c0 2.27.4 4.22 3.02 4.22 1.45 0 3.09-.86 4.14-1.79l.71.9c-1.57 1.49-3.65 3.25-5.9 3.25-3.49-.02-4.81-2.67-4.81-5.8zM261.43 481.85v-11.72c0-2.31-.94-3.46-2.86-3.46-1.45 0-3.32.71-5.63 2.12v13.06h2.42v1.57h-7.98v-1.57h2.67v-24.96h-2.67v-.94l4.85-1.49h.71v12.95c2.94-2.06 5.4-3.11 7.46-3.11 3.49 0 3.95 2.88 3.95 5.82v11.72h2.79v1.57h-7.98v-1.57h2.27zM278.17 464.17c5.48 0 8.73 4.58 8.73 9.66 0 5-3.44 10.02-8.73 10.02-5.48 0-8.69-4.58-8.69-9.62 0-4.97 3.42-10.06 8.69-10.06zm5.52 10.67c0-3.67-1.37-9.11-5.9-9.11-3.84 0-5.14 4.28-5.14 7.43 0 3.57 1.53 9.17 5.92 9.17 3.78 0 5.12-4.36 5.12-7.49zM303.29 481.85v-11.72c0-2.31-.94-3.46-2.86-3.46-1.45 0-3.32.71-5.63 2.12v13.06h2.43v1.57h-7.98v-1.57h2.67v-15.18h-2.67v-.94l4.85-1.49h.71v3.17c2.94-2.06 5.4-3.11 7.47-3.11 3.49 0 3.95 2.88 3.95 5.82v11.72h2.79v1.57h-7.98v-1.57h2.25z"/></g><g><path class="st0" d="M16.99 424.05c0 2.7-2.05 4.5-6.13 5.4-1.49.42-3.74.65-6.72.65-2.53 0-3.8-.65-3.8-1.91.65-3.21 1.72-5.6 3.24-7.2 1.1-1.38 4.39-3.18 9.9-5.4.79-.48 1.41-1.04 1.88-1.69l-.17-2.25 1.29-3.29h.62c.34 5.32.79 9.11 1.32 11.39 1.18 3.52 2.67 5.82 4.47 6.92 1.38.96 2.9 1.44 4.61 1.44h.51l.59.65v2.73l-.59.59h-1.18c-4.81-.02-8.07-2.69-9.84-8.03zM5.48 403.48l-4.7-3.01 2.45-3.63 4.7 3.01-2.45 3.63zm-.34 19.22c-2 1.27-3.01 2.17-3.01 2.7.59.53 1.88.81 3.88.81 4.61 0 8.21-.93 10.8-2.78-.84-3.8-1.27-6.44-1.27-7.93-.59 1.74-1.74 3.09-3.43 4.05-3.65 1.49-5.98 2.56-6.97 3.15zm8.89-19.25-4.73-3.01 2.45-3.63 4.73 3.01-2.45 3.63z"/><path class="st0" d="M39.35 430.18c-1.72-1.24-2.84-2.53-3.4-3.88-.34.98-1.04 2.08-2.11 3.29-1.1 1.21-2.95 2.03-5.6 2.48h-1.88l-.59-.59v-2.73l.59-.65h1.88c3.35-.03 5.54-.96 6.53-2.78 1.1-2.05 1.97-3.07 2.62-3.07.31.08.98 1.01 1.97 2.78 1.77 1.94 3.69 2.98 5.68 3.07h1.07l.59.65v2.73l-.59.59h-1.72c-1.67-.01-3.33-.63-5.04-1.89zm-5.66 13.22-4.7-3.01 2.45-3.63 4.7 3.01-2.45 3.63zm8.56-.03-4.73-3.01 2.45-3.63 4.73 3.01-2.45 3.63z"/><path class="st0" d="M44.13 431.47v-2.73l.59-.65h12.43c-.25-1.86-.59-3.32-1.04-4.42-.45-1.07-1.38-2.67-2.76-4.84v-.28l1.88-3.6h.28c2.28 2.95 3.57 6.22 3.83 9.79-.25 3.66-.96 6.1-2.11 7.31H44.72l-.59-.58zm10.72 11.93-4.7-3.01 2.45-3.63 4.7 3.01-2.45 3.63zM75.16 423.51l1.35-3.69.67.23c0 1.77.93 3.54 2.78 5.32 1.88 1.83 4.11 2.73 6.67 2.73h1.12l.59.65v2.73l-.59.59h-1.12c-1.6-.11-2.93-.28-4-.54-.31 2.79-1.35 5.68-3.15 8.64-1.83 2.45-3.97 3.99-6.36 4.7-4.64 0-9.28-.68-13.93-2.03v-1.04h3.71c5.54 0 9.59-.9 12.13-2.73 3.01-2.34 4.87-5.09 5.57-8.21-3.61-1.98-5.44-4.42-5.44-7.35z"/><path class="st0" d="M103.74 427.56c-3.43 2.5-8.33 4.02-14.71 4.5h-2.39l-.59-.59v-2.73l.59-.65h2.48c5.2-.25 9.37-1.18 12.55-2.78-.73-1.77-2.17-3.12-4.3-4.05-1.1-.45-2.64-.68-4.61-.68l-.39-.51 1.74-4.05c2.03-.65 4.28-.98 6.78-.98 4.5 0 7.03 1.69 7.62 5.09 0 1.6-.65 3.29-1.97 5.09 1.86 1.72 4.22 2.67 7.06 2.87h2.22l.56.65v2.73l-.56.59h-2.22c-4.94 0-8.2-1.49-9.86-4.5z"/><path class="st0" d="M124.67 432.06h-9.85l-.59-.59v-2.73l.59-.65h9.14c.2-.56.31-1.35.34-2.34 0-2.62-1.01-9.73-3.01-21.35-1.91-1.32-2.87-2.9-2.87-4.7 0-1.66.68-3.21 2.03-4.61l.23.11c0 2.56 2.87 5.43 8.64 8.55v.28l-1.88 3.97h-.17l-2.53-1.27c.54 2.48 1.04 5.26 1.52 8.35.45 3.1.68 5.85.68 8.24-.02 2.58-.78 5.48-2.27 8.74zM140.93 423.68c-.25 2.9-.79 5.68-1.6 8.38h-.62c0-4.75-1.04-14.85-3.09-30.3l2.25-5.49h.37c1.79 13.09 2.69 22.23 2.69 27.41zM183.18 434.4c-3.88 2.84-8.44 4.25-13.67 4.25-8.3 0-12.43-3.15-12.43-9.45 0-2.87.87-6.41 2.62-10.63l1.12.54c-.76 2.28-1.21 4.5-1.41 6.64 0 5.65 3.38 8.5 10.1 8.5 4.87 0 9.42-1.12 13.67-3.4-.17-3.88-.93-8.13-2.28-12.72l2.45-4.14h.37c1.18 3.94 1.86 7.15 2.03 9.62v3.97c-.23 2.54-1.08 4.82-2.57 6.82zm-11.68-24.79-4.7-3.01 2.45-3.63 4.7 3.01-2.45 3.63zM195.27 396.14c1.1 17.08 2.17 26.67 3.21 28.78 1.04 2.11 3.15 3.15 6.36 3.18l.2.42v3.15l-.22.39h-.28c-2.36-.03-4.28-.59-5.77-1.66-1.55-.98-2.67-2.56-3.38-4.73-.45-1.74-1.41-10.07-2.87-24.98l2.19-4.56h.56z"/><path class="st0" d="M231.71 430.18c-1.41-1.15-2.17-3.01-2.31-5.6l-9.62 5.06c-2.84 1.15-6.64 1.97-11.34 2.42h-5.18l-.59-.59v-2.73l.59-.65h1.29c8.97-.11 15.64-1.63 20-4.59 1.55-.9 2.76-1.52 3.6-1.89v-.08c-6.39-1.69-10.63-2.53-12.8-2.53-4.47 0-7.4 1.97-8.81 5.94-.7 1.15-1.21 1.72-1.55 1.72l-.08-.17c.34-1.69 1.52-4.14 3.52-7.31 2.11-3.01 5.15-4.5 9.09-4.5 2.73 0 7.88 1.04 15.39 3.15 2.17.42 3.97.65 5.4.65h1.55l.17.08c-.53 2.7-1.01 4.05-1.43 4.05-.73.11-1.29.17-1.72.17h-1.35c-2.19.28-3.77.79-4.73 1.55 0 .65.59 1.44 1.8 2.31 1.21.87 2.87 1.38 5.01 1.46h5.51l.59.65v2.73l-.59.59h-5.51c-2.53-.12-4.5-.74-5.9-1.89zm-11.96 13.22-4.7-3.01 2.45-3.63 4.7 3.01-2.45 3.63z"/><path class="st0" d="M250.83 424.64c3.24-7.79 6.89-11.7 11-11.7 3.18 0 5.26 2.81 6.22 8.47.25 1.66.37 3.32.37 4.95-.48 2.95-1.46 4.42-2.9 4.42-3.74 0-8.07-1.83-13.05-5.46-1.88 3.09-3.57 5.01-5.12 5.71-1.1.59-2.28.96-3.6 1.04h-1.6l-.59-.59v-2.73l.59-.65h2.42c2.83 0 4.91-1.16 6.26-3.46zm15.05 1.63c-1.01-6.08-2.93-9.12-5.77-9.12-1.88 0-3.83 1.18-5.85 3.52 2.45 2.39 6.31 4.25 11.62 5.6zM279.64 423.51l1.35-3.69.68.23c0 1.77.93 3.54 2.78 5.32 1.88 1.83 4.11 2.73 6.67 2.73h1.12l.59.65v2.73l-.59.59h-1.12c-1.6-.11-2.93-.28-4-.54-.31 2.79-1.35 5.68-3.15 8.64-1.83 2.45-3.97 3.99-6.36 4.7-4.64 0-9.28-.68-13.93-2.03v-1.04h3.71c5.54 0 9.59-.9 12.13-2.73 3.01-2.34 4.87-5.09 5.57-8.21-3.62-1.98-5.45-4.42-5.45-7.35z"/><path class="st0" d="M290.52 431.47v-2.73l.59-.65h12.43c-.25-1.86-.59-3.32-1.04-4.42-.45-1.07-1.38-2.67-2.76-4.84v-.28l1.88-3.6h.28c2.28 2.95 3.57 6.22 3.83 9.79-.25 3.66-.96 6.1-2.11 7.31H291.1l-.58-.58zm10.72 11.93-4.7-3.01 2.45-3.63 4.7 3.01-2.45 3.63z"/></g></svg>